<svg id="Layer_1" data-name="Layer 1" xmlns="http://www.w3.org/2000/svg" viewBox="0 0 256 256"><defs><style>.cls-1{fill:#005bff;}.cls-2{fill:#fefefe;}</style></defs><title>bitcoinbase-hicolor-scalable</title><path class="cls-1" d="M123.1,1.1a127,127,0,1,1-122,131.84A127,127,0,0,1,123.1,1.1Z"/><path class="cls-2" d="M122.56,48.47h.16c.06.06.12.09.19.16,1.48,5.88,4.42,16.66,5.66,22.13,11.26-1.48,23.72-2.3,32.89,5.95C169,83.51,171.92,95.78,167,105a36.5,36.5,0,0,1-5.44,6.89c10.18.38,22.64,10.47,25.55,20.18a29.94,29.94,0,0,1-2.18,21.66c-6.32,11.74-17.77,16.23-29.76,20,2.12,7.34,3.92,15.12,5.79,22.55-4.46,1.14-9.17,2.27-13.6,3.54-2.06-7.18-3.95-15.47-5.82-22.77-3.26,1-7.56,2-10.91,2.72.82,2.78,1.55,5.91,2.28,8.76l3.6,14.1c-4.55,1.05-9.07,2.19-13.56,3.45-.67-2.09-1.21-4.43-1.74-6.58L118.73,190c-.57-2.15-1.2-4.46-1.61-6.64-4.27.76-10,2.5-14.26,3.6s-9,2.22-13.35,3.45c-.66-5.37-1.07-11.54-1.55-17,3.1-.76,6.2-1.49,9.27-2.31s5.06-3,4.46-6.42c-.45-2.53-1.21-5-1.87-7.46l-3.64-14.14-6.42-24.92c-1.13-4.39-2.24-8.79-3.41-13.15-2.06-7.56-8.41-5.79-14-4.24-1.87.51-3.73,1-5.57,1.55-1.26-4.71-2.5-9.8-3.67-14.58,9.05-2.47,18.34-4.74,27.42-7.15-2.12-7-3.95-15.21-5.82-22.39,4.14-.82,9.52-2.31,13.63-3.48L104,77c3.57-1,7.36-1.71,10.88-2.75-2-7.4-3.89-14.83-5.73-22.26C113.77,50.81,118.07,49.61,122.56,48.47Z"/><path class="cls-1" d="M142.45,128.7c7.15-.44,16.1,1.08,18.37,9.33a15.42,15.42,0,0,1-1.74,11.26c-4.77,7.49-14.73,10.31-22.89,12.27l-9.36,2c-2.82-10-5.47-20-8-30C126.61,131.23,134.29,129.27,142.45,128.7Z"/><path class="cls-1" d="M127.49,88.41c4-.19,7.69.16,11.13,2.21a12.05,12.05,0,0,1,5.57,7.5,12.38,12.38,0,0,1-1.52,9.55c-3.82,6.2-12,8.73-18.78,10.34-2.38.63-5.73,1.27-8.16,1.77-1.14-4.9-2.6-9.9-3.89-14.77-1.11-4-2.12-8.41-3.35-12.36A81,81,0,0,1,127.49,88.41Z"/></svg>